<svg width="119" height="118" viewBox="0 0 119 118" fill="none" xmlns="http://www.w3.org/2000/svg">
<g filter="url(#filter0_d_5_7)">
<path d="M40.5 90L20 98L34.5 73L59 20L83.5 73L99 98L79.5 90H74V100H45V90H40.5Z" fill="#25252B"/>
<path d="M40.5 90L20 98L34.5 73M40.5 90L34.5 73M40.5 90H45M34.5 73L59 20L83.5 73M79.5 90L99 98L83.5 73M79.5 90L83.5 73M79.5 90H74M74 90V100H45V90M74 90H45M59 42.5L53.5 53L59 76L65.5 53L59 42.5Z" stroke="#00FF57" stroke-width="4"/>
<path d="M58 53H61" stroke="#08D3FF"/>
<path d="M58 54H61" stroke="#FFAE00"/>
</g>
<defs>
<filter id="filter0_d_5_7" x="0.402039" y="0.233566" width="118.551" height="116.96" filterUnits="userSpaceOnUse" color-interpolation-filters="sRGB">
<feFlood flood-opacity="0" result="BackgroundImageFix"/>
<feColorMatrix in="SourceAlpha" type="matrix" values="0 0 0 0 0 0 0 0 0 0 0 0 0 0 0 0 0 0 127 0" result="hardAlpha"/>
<feOffset/>
<feGaussianBlur stdDeviation="7.5"/>
<feColorMatrix type="matrix" values="0 0 0 0 1 0 0 0 0 0 0 0 0 0 0.839216 0 0 0 1 0"/>
<feBlend mode="normal" in2="BackgroundImageFix" result="effect1_dropShadow_5_7"/>
<feBlend mode="normal" in="SourceGraphic" in2="effect1_dropShadow_5_7" result="shape"/>
</filter>
</defs>
</svg>
